<svg width="78" height="80" viewBox="0 0 78 80" fill="none" xmlns="http://www.w3.org/2000/svg">
<path d="M38.3822 61.8412L19.2277 44.7944L19.0784 52.001L38.5367 69.2991L58.7724 52.2524L58.618 45.1496L38.3822 61.8412Z" fill="#D7B44D"/>
<path d="M19.0732 52.2524L19.0784 52.001M19.0784 52.001L19.2277 44.7944L38.3822 61.8412L58.618 45.1496L58.7724 52.2524L38.5367 69.2991L19.0784 52.001Z" stroke="#D7B44D"/>
<path d="M15.5204 34.8816V63.4393L11.0407 67.1683L10.8862 24.3739L38.5366 48.1683L67.7318 24.3739V68.0561L62.7887 62.729V35.0281L38.6911 55.6262L15.5204 34.8816Z" fill="#D7B44D" stroke="#D7B44D"/>
<path d="M6.56098 73.028L1.30894 77.6449L1 2L38.5366 34.3178L77 2.35514V78L71.748 73.3832V14.4299L38.5366 41.4206L6.56098 13.4119V73.028Z" fill="#D7B44D" stroke="#D7B44D"/>
</svg>
