<svg width="53.87" height="43.61" viewBox="0 0 96 84" fill="none" xmlns="http://www.w3.org/2000/svg">
<path d="M47.1715 65.2967L23.5134 46.9808L23.329 54.7239L47.3623 73.3099L72.3559 54.994L72.1651 47.3624L47.1715 65.2967Z" fill="#D7B44D"/>
<path d="M23.3226 54.994L23.329 54.7239M23.329 54.7239L23.5134 46.9808L47.1715 65.2967L72.1651 47.3624L72.3559 54.994L47.3623 73.3099L23.329 54.7239Z" stroke="#D7B44D"/>
<path d="M18.9344 36.3296V67.0136L13.4014 71.0202L13.2106 25.0396L47.3622 50.6056L83.4217 25.0396V71.9742L77.3164 66.2505V36.4871L47.553 58.6188L18.9344 36.3296Z" fill="#D7B44D" stroke="#D7B44D"/>
<path d="M7.86848 77.3164L1.38158 82.277L1 1L47.3622 35.724L94.8692 1.38158V82.6586L88.3823 77.698V14.3554L47.3622 43.3556L7.86848 13.2616V77.3164Z" fill="#D7B44D" stroke="#D7B44D"/>
</svg>
